<svg xmlns="http://www.w3.org/2000/svg" version="1.1" viewBox="77.5 15.46 445.03 572.99">
<g stroke-width="2.00" fill="none" stroke-linecap="butt">
<path stroke="#881424" vector-effect="non-scaling-stroke" d="   M 479.29 59.04   A 0.33 0.33 0.0 0 0 478.96 58.71   L 121.06 58.71   A 0.33 0.33 0.0 0 0 120.73 59.04   L 120.73 417.24   A 0.33 0.33 0.0 0 0 121.06 417.57   L 478.96 417.57   A 0.33 0.33 0.0 0 0 479.29 417.24   L 479.29 59.04"/>
<path stroke="#881424" vector-effect="non-scaling-stroke" d="   M 475.30 238.14   A 175.29 175.29 0.0 0 0 300.01 62.85   A 175.29 175.29 0.0 0 0 124.72 238.14   A 175.29 175.29 0.0 0 0 300.01 413.43   A 175.29 175.29 0.0 0 0 475.30 238.14"/>
</g>
<path fill="#231f20" d="   M 522.50 460.58   A 0.26 0.26 0.0 0 1 522.24 460.84   L 77.76 460.84   A 0.26 0.26 0.0 0 1 77.50 460.58   L 77.50 15.72   A 0.26 0.26 0.0 0 1 77.76 15.46   L 522.24 15.46   A 0.26 0.26 0.0 0 1 522.50 15.72   L 522.50 460.58   Z   M 495.20 43.07   A 0.31 0.31 0.0 0 0 494.89 42.76   L 105.11 42.76   A 0.31 0.31 0.0 0 0 104.80 43.07   L 104.80 433.15   A 0.31 0.31 0.0 0 0 105.11 433.46   L 494.89 433.46   A 0.31 0.31 0.0 0 0 495.20 433.15   L 495.20 43.07   Z"/>
<path fill="#231f20" d="   M 485.13 423.10   A 0.40 0.40 0.0 0 1 484.73 423.50   L 115.25 423.50   A 0.40 0.40 0.0 0 1 114.85 423.10   L 114.85 53.20   A 0.40 0.40 0.0 0 1 115.25 52.80   L 484.73 52.80   A 0.40 0.40 0.0 0 1 485.13 53.20   L 485.13 423.10   Z   M 479.29 59.04   A 0.33 0.33 0.0 0 0 478.96 58.71   L 121.06 58.71   A 0.33 0.33 0.0 0 0 120.73 59.04   L 120.73 417.24   A 0.33 0.33 0.0 0 0 121.06 417.57   L 478.96 417.57   A 0.33 0.33 0.0 0 0 479.29 417.24   L 479.29 59.04   Z"/>
<path fill="#ec0927" d="   M 479.29 417.24   A 0.33 0.33 0.0 0 1 478.96 417.57   L 121.06 417.57   A 0.33 0.33 0.0 0 1 120.73 417.24   L 120.73 59.04   A 0.33 0.33 0.0 0 1 121.06 58.71   L 478.96 58.71   A 0.33 0.33 0.0 0 1 479.29 59.04   L 479.29 417.24   Z   M 475.30 238.14   A 175.29 175.29 0.0 0 0 300.01 62.85   A 175.29 175.29 0.0 0 0 124.72 238.14   A 175.29 175.29 0.0 0 0 300.01 413.43   A 175.29 175.29 0.0 0 0 475.30 238.14   Z"/>
<path fill="#231f20" d="   M 475.30 238.14   A 175.29 175.29 0.0 0 1 300.01 413.43   A 175.29 175.29 0.0 0 1 124.72 238.14   A 175.29 175.29 0.0 0 1 300.01 62.85   A 175.29 175.29 0.0 0 1 475.30 238.14   Z   M 469.46 238.14   A 169.46 169.46 0.0 0 0 300.00 68.68   A 169.46 169.46 0.0 0 0 130.54 238.14   A 169.46 169.46 0.0 0 0 300.00 407.60   A 169.46 169.46 0.0 0 0 469.46 238.14   Z"/>
<path fill="#231f20" d="   M 459.40 238.12   A 159.40 159.40 0.0 0 1 300.00 397.52   A 159.40 159.40 0.0 0 1 140.60 238.12   A 159.40 159.40 0.0 0 1 300.00 78.72   A 159.40 159.40 0.0 0 1 459.40 238.12   Z   M 412.84 339.46   C 462.38 283.87 464.56 202.24 418.80 143.89   Q 418.64 143.68 418.44 143.85   L 413.92 147.71   Q 413.72 147.89 413.88 148.10   C 457.87 204.30 455.20 281.55 408.13 334.99   Q 408.03 335.10 408.14 335.21   L 412.49 339.47   Q 412.67 339.64 412.84 339.46   Z   M 402.83 329.40   C 447.17 279.08 449.01 205.87 408.10 153.10   Q 407.94 152.91 407.75 153.07   L 403.16 156.95   Q 402.96 157.11 403.12 157.31   C 423.02 182.03 432.45 213.98 430.87 245.01   Q 428.60 289.38 398.33 324.86   Q 397.92 325.35 398.37 325.79   L 402.11 329.43   A 0.50 0.49 42.3 0 0 402.83 329.40   Z   M 392.50 166.62   C 426.64 211.35 424.92 272.62 387.86 315.24   Q 387.67 315.46 387.88 315.66   Q 390.03 317.71 392.16 319.82   Q 392.34 320.00 392.50 319.81   Q 417.43 290.78 422.09 255.43   Q 428.89 203.92 397.37 162.28   Q 397.21 162.07 397.02 162.24   L 392.55 166.13   A 0.36 0.35 50.9 0 0 392.50 166.62   Z   M 366.86 238.12   A 66.86 66.86 0.0 0 0 300.00 171.26   A 66.86 66.86 0.0 0 0 233.14 238.12   A 66.86 66.86 0.0 0 0 300.00 304.98   A 66.86 66.86 0.0 0 0 366.86 238.12   Z   M 382.36 309.84   C 416.82 270.49 417.98 212.72 386.59 171.54   Q 386.44 171.33 386.25 171.50   L 381.75 175.43   Q 381.58 175.58 381.71 175.75   Q 406.89 209.58 401.93 251.23   Q 398.42 280.68 377.77 305.36   A 0.40 0.40 0.0 0 0 377.80 305.91   L 381.87 309.86   Q 382.13 310.10 382.36 309.84   Z   M 385.90 197.25   Q 382.09 188.84 375.82 180.81   Q 375.68 180.62 375.50 180.78   L 371.04 184.69   Q 370.89 184.82 371.01 184.99   C 395.86 219.12 394.34 262.97 367.53 295.62   Q 367.38 295.79 367.54 295.95   L 371.76 300.06   Q 371.95 300.24 372.12 300.04   Q 382.44 287.93 387.75 274.77   Q 403.42 235.91 385.90 197.25   Z   M 360.23 194.21   C 380.41 222.77 379.09 258.52 357.33 285.81   Q 357.20 285.97 357.35 286.11   L 361.60 290.20   Q 361.84 290.43 362.05 290.18   C 386.11 260.85 387.27 220.67 365.18 190.01   Q 365.07 189.86 364.93 189.97   L 360.27 193.88   Q 360.10 194.03 360.23 194.21   Z"/>
<circle fill="#231f20" cx="300.00" cy="238.11" r="59.40"/>
<path fill="#231f20" d="   M 144.62 495.59   Q 134.06 491.43 125.87 498.89   C 121.59 502.78 119.66 509.32 121.01 514.97   C 124.08 527.79 139.57 532.81 149.50 523.62   Q 149.94 523.21 150.37 523.63   L 160.55 533.52   Q 160.99 533.95 160.54 534.37   Q 148.53 545.51 133.10 543.41   C 118.92 541.47 107.64 530.07 105.58 515.83   C 102.66 495.72 119.02 477.69 139.30 478.77   Q 152.36 479.47 161.96 489.60   Q 162.35 490.00 161.92 490.37   L 151.02 499.78   A 0.55 0.53 -39.2 0 1 150.25 499.71   Q 148.01 496.92 144.62 495.59   Z"/>
<path fill="#231f20" d="   M 234.96 516.47   L 245.55 542.76   A 0.33 0.33 0.0 0 1 245.24 543.21   L 229.49 543.21   Q 228.85 543.21 228.62 542.62   L 219.50 519.27   Q 219.30 518.78 218.77 518.78   L 204.27 518.78   A 0.69 0.69 0.0 0 0 203.58 519.47   L 203.58 542.56   A 0.65 0.65 0.0 0 1 202.94 543.21   L 188.99 543.21   Q 188.27 543.21 188.27 542.49   L 188.27 479.74   A 0.29 0.29 0.0 0 1 188.56 479.45   Q 206.26 479.46 223.23 479.39   Q 235.73 479.33 241.71 489.59   C 246.90 498.51 243.95 510.05 235.25 515.57   Q 234.73 515.90 234.96 516.47   Z   M 203.57 495.21   L 203.57 503.03   A 0.44 0.44 0.0 0 0 204.01 503.47   L 224.37 503.47   A 4.44 4.22 0.0 0 0 228.81 499.25   L 228.81 498.99   A 4.44 4.22 -0.0 0 0 224.37 494.77   L 204.01 494.77   A 0.44 0.44 0.0 0 0 203.57 495.21   Z"/>
<path fill="#231f20" d="   M 287.47 543.19   L 271.58 543.22   A 0.34 0.34 0.0 0 1 271.26 542.76   L 295.52 479.66   A 0.34 0.34 0.0 0 1 295.83 479.44   L 311.66 479.45   A 0.34 0.34 0.0 0 1 311.97 479.67   L 336.32 542.76   A 0.34 0.34 0.0 0 1 336.00 543.22   L 320.13 543.20   A 0.34 0.34 0.0 0 1 319.82 542.98   L 316.95 535.52   A 0.34 0.34 0.0 0 0 316.64 535.30   L 290.95 535.29   A 0.34 0.34 0.0 0 0 290.64 535.51   L 287.78 542.97   A 0.34 0.34 0.0 0 1 287.47 543.19   Z   M 296.77 519.42   A 0.30 0.30 0.0 0 0 297.05 519.83   L 310.51 519.81   A 0.30 0.30 0.0 0 0 310.79 519.40   L 304.03 501.89   A 0.30 0.30 0.0 0 0 303.47 501.89   L 296.77 519.42   Z"/>
<path fill="#231f20" d="   M 377.46 503.53   L 403.75 503.54   A 0.34 0.34 0.0 0 1 404.09 503.88   L 404.08 518.57   A 0.34 0.34 0.0 0 1 403.74 518.91   L 377.50 518.89   A 0.34 0.34 0.0 0 0 377.16 519.23   L 377.18 542.86   A 0.34 0.34 0.0 0 1 376.84 543.20   L 362.11 543.21   A 0.34 0.34 0.0 0 1 361.77 542.87   L 361.77 479.79   A 0.34 0.34 0.0 0 1 362.11 479.45   L 411.18 479.45   A 0.34 0.34 0.0 0 1 411.52 479.79   L 411.52 494.58   A 0.34 0.34 0.0 0 1 411.18 494.92   L 377.50 494.89   A 0.34 0.34 0.0 0 0 377.16 495.23   L 377.12 503.19   A 0.34 0.34 0.0 0 0 377.46 503.53   Z"/>
<path fill="#231f20" d="   M 474.75 495.14   L 474.75 542.84   A 0.37 0.37 0.0 0 1 474.38 543.21   L 459.74 543.21   A 0.37 0.37 0.0 0 1 459.37 542.84   L 459.37 495.14   A 0.37 0.37 0.0 0 0 459.00 494.77   L 439.65 494.79   A 0.37 0.37 0.0 0 1 439.28 494.42   L 439.28 479.82   A 0.37 0.37 0.0 0 1 439.65 479.45   L 494.43 479.45   A 0.37 0.37 0.0 0 1 494.80 479.82   L 494.79 494.41   A 0.37 0.37 0.0 0 1 494.42 494.78   L 475.12 494.77   A 0.37 0.37 0.0 0 0 474.75 495.14   Z"/>
<path fill="#231f20" d="   M 512.82 482.35   L 512.81 485.60   A 0.59 0.58 85.4 0 1 512.32 486.18   L 511.99 486.23   A 0.54 0.52 -6.7 0 1 511.38 485.76   Q 511.21 484.25 511.36 482.72   Q 511.41 482.17 511.03 481.81   Q 510.57 481.38 509.90 481.49   Q 509.44 481.56 509.46 481.09   L 509.47 480.71   A 0.71 0.70 -87.6 0 1 510.20 480.03   Q 511.99 480.09 513.91 480.04   Q 514.24 480.03 514.50 480.23   Q 514.80 480.47 514.80 480.88   A 0.58 0.57 -1.6 0 1 514.25 481.45   L 513.65 481.48   Q 512.83 481.53 512.82 482.35   Z"/>
<path fill="#231f20" d="   M 518.80 482.62   Q 519.65 484.63 520.14 482.50   Q 520.68 480.12 521.94 480.04   Q 522.51 480.00 522.51 480.57   L 522.53 485.55   Q 522.53 486.39 521.74 486.11   Q 521.45 486.00 521.27 485.74   Q 520.76 485.00 520.21 485.71   Q 519.41 486.74 518.66 485.65   Q 518.20 484.99 517.74 485.65   Q 517.48 486.01 517.07 486.09   Q 516.33 486.23 516.34 485.48   L 516.41 480.59   Q 516.42 480.00 517.00 480.04   Q 518.05 480.10 518.32 481.20   Q 518.51 481.94 518.80 482.62   Z"/>
<path fill="#231f20" d="   M 451.59 567.43   A 1.70 1.70 0.0 0 0 451.73 570.55   Q 454.43 571.56 457.48 572.44   C 468.38 575.58 464.79 587.12 455.31 588.31   Q 448.55 589.16 442.85 584.92   A 0.57 0.57 0.0 0 1 442.81 584.04   L 446.85 580.34   Q 447.29 579.94 447.74 580.32   Q 451.21 583.28 455.80 582.64   A 2.03 2.03 0.0 0 0 457.42 579.91   Q 456.96 578.68 455.60 578.28   Q 452.48 577.37 449.41 576.37   C 441.29 573.71 442.59 564.13 450.20 561.92   Q 457.74 559.72 464.34 564.42   A 0.23 0.22 40.6 0 1 464.37 564.77   L 459.94 568.92   Q 459.78 569.07 459.62 568.94   Q 455.38 565.61 451.59 567.43   Z"/>
<path fill="#231f20" d="   M 214.39 580.61   C 216.65 582.01 220.35 582.16 222.41 580.07   Q 222.89 579.58 223.37 580.06   L 226.86 583.50   Q 227.36 583.99 226.81 584.42   Q 219.61 590.06 212.08 586.25   C 202.51 581.41 203.12 567.69 212.43 563.22   C 217.87 560.60 223.48 561.83 227.63 566.07   Q 227.86 566.31 227.61 566.52   L 223.53 570.04   Q 223.32 570.22 223.11 570.04   C 214.85 562.84 206.24 575.54 214.39 580.61   Z"/>
<path fill="#231f20" d="   M 263.82 574.77   A 12.97 12.97 0.0 0 1 250.85 587.74   A 12.97 12.97 0.0 0 1 237.88 574.77   A 12.97 12.97 0.0 0 1 250.85 561.80   A 12.97 12.97 0.0 0 1 263.82 574.77   Z   M 257.79 574.76   A 6.93 6.93 0.0 0 0 250.86 567.83   A 6.93 6.93 0.0 0 0 243.93 574.76   A 6.93 6.93 0.0 0 0 250.86 581.69   A 6.93 6.93 0.0 0 0 257.79 574.76   Z"/>
<path fill="#231f20" d="   M 422.76 578.83   L 419.23 578.92   Q 418.26 578.95 418.26 577.98   L 418.26 573.89   Q 418.26 572.78 419.36 572.78   L 428.75 572.78   Q 429.48 572.77 429.48 573.50   L 429.48 582.25   Q 429.48 582.91 429.01 583.38   C 422.21 590.00 411.46 589.16 407.09 580.46   Q 403.91 574.13 407.67 568.13   C 412.44 560.52 421.90 559.77 428.24 566.08   A 0.28 0.27 47.0 0 1 428.23 566.48   L 424.06 570.07   Q 423.84 570.26 423.63 570.05   C 417.52 564.08 408.35 571.72 412.95 578.67   C 415.21 582.08 419.74 582.42 423.08 580.44   A 0.87 0.85 -14.5 0 0 423.50 579.74   Q 423.50 579.50 423.42 579.27   Q 423.25 578.82 422.76 578.83   Z"/>
<path fill="#231f20" d="   M 179.87 571.75   L 190.00 571.75   A 0.32 0.32 0.0 0 1 190.32 572.07   L 190.31 577.47   A 0.32 0.32 0.0 0 1 189.99 577.79   L 179.88 577.77   A 0.32 0.32 0.0 0 0 179.56 578.09   L 179.54 581.05   A 0.32 0.32 0.0 0 0 179.86 581.37   L 192.98 581.37   A 0.32 0.32 0.0 0 1 193.30 581.69   L 193.32 587.08   A 0.32 0.32 0.0 0 1 193.00 587.40   L 173.82 587.40   A 0.32 0.32 0.0 0 1 173.50 587.08   L 173.49 562.48   A 0.32 0.32 0.0 0 1 173.81 562.16   L 192.98 562.17   A 0.32 0.32 0.0 0 1 193.30 562.49   L 193.31 567.94   A 0.32 0.32 0.0 0 1 192.99 568.26   L 179.86 568.26   A 0.32 0.32 0.0 0 0 179.54 568.58   L 179.55 571.43   A 0.32 0.32 0.0 0 0 179.87 571.75   Z"/>
<path fill="#231f20" d="   M 282.47 578.27   L 282.48 586.89   Q 282.48 587.51 281.86 587.51   L 277.05 587.51   A 0.71 0.71 0.0 0 1 276.34 586.80   L 276.34 562.55   A 0.43 0.43 0.0 0 1 276.78 562.12   Q 282.60 562.26 289.28 562.11   C 293.51 562.02 297.16 563.60 298.35 567.79   Q 299.78 572.83 295.27 576.43   Q 294.87 576.75 295.06 577.23   L 299.17 587.25   A 0.18 0.18 0.0 0 1 299.00 587.50   L 292.80 587.51   Q 292.59 587.51 292.51 587.31   L 289.00 578.26   Q 288.80 577.76 288.26 577.76   L 282.98 577.75   Q 282.47 577.75 282.47 578.27   Z   M 282.44 568.73   L 282.44 571.25   A 0.49 0.49 0.0 0 0 282.93 571.74   L 290.87 571.74   A 1.67 1.45 -0.0 0 0 292.54 570.29   L 292.54 569.69   A 1.67 1.45 0.0 0 0 290.87 568.24   L 282.93 568.24   A 0.49 0.49 0.0 0 0 282.44 568.73   Z"/>
<path fill="#231f20" d="   M 312.23 562.55   A 0.41 0.41 0.0 0 1 312.64 562.14   L 322.73 562.14   A 12.78 12.54 -0.0 0 1 335.51 574.68   L 335.51 574.88   A 12.78 12.54 0.0 0 1 322.73 587.42   L 312.64 587.42   A 0.41 0.41 0.0 0 1 312.23 587.01   L 312.23 562.55   Z   M 318.24 568.63   L 318.26 581.01   A 0.39 0.39 0.0 0 0 318.65 581.40   L 322.71 581.39   A 6.77 6.40 -0.1 0 0 329.47 574.98   L 329.47 574.62   A 6.77 6.40 -0.1 0 0 322.69 568.23   L 318.63 568.24   A 0.39 0.39 0.0 0 0 318.24 568.63   Z"/>
<rect fill="#231f20" x="349.21" y="562.16" width="6.04" height="25.22" rx="0.27"/>
<path fill="#231f20" d="   M 386.76 576.54   A 0.22 0.22 0.0 0 0 387.12 576.36   L 387.03 562.74   Q 387.02 562.25 387.51 562.25   L 392.72 562.23   Q 393.22 562.23 393.22 562.73   L 393.22 586.77   Q 393.22 587.50 392.48 587.51   L 387.15 587.52   Q 386.49 587.52 386.13 586.97   L 377.17 573.27   Q 376.37 572.04 376.38 573.50   L 376.45 586.97   Q 376.45 587.40 376.03 587.40   L 370.73 587.40   Q 370.31 587.40 370.31 586.98   L 370.31 562.80   Q 370.31 562.15 370.95 562.15   L 376.49 562.16   Q 377.04 562.16 377.34 562.62   Q 381.59 568.96 385.76 575.46   Q 386.17 576.10 386.76 576.54   Z"/>
<path fill="#231f20" d="   M 143.75 578.26   L 143.77 586.99   Q 143.77 587.50 143.26 587.50   L 138.23 587.51   Q 137.69 587.51 137.69 586.97   L 137.68 562.77   Q 137.68 562.18 138.27 562.18   Q 146.37 562.12 152.63 562.22   Q 155.54 562.27 157.84 564.64   C 161.25 568.16 160.46 573.35 156.70 576.30   Q 156.16 576.73 156.42 577.36   L 160.46 587.23   A 0.20 0.20 0.0 0 1 160.27 587.51   L 154.09 587.50   Q 153.90 587.50 153.83 587.32   L 150.31 578.29   Q 150.10 577.76 149.53 577.76   L 144.24 577.76   A 0.50 0.49 -90.0 0 0 143.75 578.26   Z   M 143.75 568.73   L 143.75 571.25   A 0.49 0.49 0.0 0 0 144.24 571.74   L 152.25 571.74   A 1.60 1.56 0.0 0 0 153.85 570.18   L 153.85 569.80   A 1.60 1.56 -0.0 0 0 152.25 568.24   L 144.24 568.24   A 0.49 0.49 0.0 0 0 143.75 568.73   Z"/>
<rect fill="#231f20" x="-5.14" y="-5.14" transform="translate(112.58,575.43) rotate(44.9)" width="10.28" height="10.28" rx="0.44"/>
<rect fill="#231f20" x="-5.12" y="-5.14" transform="translate(487.53,575.42) rotate(45.0)" width="10.24" height="10.28" rx="0.46"/>
</svg>