<svg width="228" height="36" viewBox="0 0 228 36" fill="none" xmlns="http://www.w3.org/2000/svg">
<g clip-path="url(#clip0_56_974)">
<path fill-rule="evenodd" clip-rule="evenodd" d="M63.7402 0C60.4265 0 57.7402 2.68629 57.7402 6V30C57.7402 33.3137 60.4265 36 63.7402 36H87.7402C91.0539 36 93.7402 33.3137 93.7402 30V6C93.7402 2.68629 91.0539 0 87.7402 0H63.7402ZM75.7215 32C83.4599 32 89.7402 25.7653 89.7402 18.0373C89.7402 10.3093 83.4599 4 75.7215 4C67.9832 4 61.7402 10.3093 61.7402 18.0373C61.7402 25.7653 67.9832 32 75.7215 32ZM75.7215 11.3173C79.4225 11.3173 82.4131 14.304 82.4131 18C82.4131 21.6587 79.4225 24.6827 75.7215 24.6827C72.058 24.6827 69.0673 21.6587 69.0673 18C69.0673 14.304 72.058 11.3173 75.7215 11.3173Z" fill="white"/>
<path fill-rule="evenodd" clip-rule="evenodd" d="M101.74 0C98.4265 0 95.7402 2.68629 95.7402 6V30C95.7402 33.3137 98.4265 36 101.74 36H125.74C129.054 36 131.74 33.3137 131.74 30V6C131.74 2.68629 129.054 0 125.74 0H101.74ZM113.722 32C121.46 32 127.74 25.7653 127.74 18.0373C127.74 10.3093 121.46 4 113.722 4C105.983 4 99.7402 10.3093 99.7402 18.0373C99.7402 25.7653 105.983 32 113.722 32ZM113.722 11.3173C117.422 11.3173 120.413 14.304 120.413 18C120.413 21.6587 117.422 24.6827 113.722 24.6827C110.058 24.6827 107.067 21.6587 107.067 18C107.067 14.304 110.058 11.3173 113.722 11.3173Z" fill="white"/>
<path fill-rule="evenodd" clip-rule="evenodd" d="M139.74 0C136.427 0 133.74 2.68629 133.74 6V30C133.74 33.3137 136.427 36 139.74 36H163.74C167.054 36 169.74 33.3137 169.74 30V6C169.74 2.68629 167.054 0 163.74 0H139.74ZM137.74 4V32H149.661C158.537 32 165.74 25.728 165.74 18C165.74 10.272 158.537 4 149.661 4H137.74ZM149.703 24.7573H146.145V11.504H149.703C153.906 11.504 157.336 14.4907 157.336 18.112C157.336 21.7707 153.906 24.7573 149.703 24.7573Z" fill="white"/>
<path fill-rule="evenodd" clip-rule="evenodd" d="M177.74 0C174.427 0 171.74 2.68629 171.74 6V30C171.74 33.3137 174.427 36 177.74 36H201.74C205.054 36 207.74 33.3137 207.74 30V6C207.74 2.68629 205.054 0 201.74 0H177.74ZM189.275 11.392L175.783 32H203.74V24.6453H190.205L203.698 4H175.74V11.392H189.275Z" fill="white"/>
<path fill-rule="evenodd" clip-rule="evenodd" d="M25.7402 0C22.4265 0 19.7402 2.68629 19.7402 6V30C19.7402 33.3137 22.4265 36 25.7402 36H49.7402C53.0539 36 55.7402 33.3137 55.7402 30V6C55.7402 2.68629 53.0539 0 49.7402 0H25.7402ZM23.7402 18C23.7402 25.728 29.9832 32 37.7215 32C45.4599 32 51.7402 25.728 51.7402 18V17.9547C51.7402 17.4024 51.2925 16.9547 50.7402 16.9547H38.7215C38.1693 16.9547 37.7215 17.4024 37.7215 17.9547V20.8827C37.7215 21.435 38.1693 21.8827 38.7215 21.8827H41.2375C42.0434 21.8827 42.4709 22.7634 41.8323 23.255C40.6978 24.1285 39.2454 24.6453 37.7215 24.6453C34.2823 24.6453 31.1047 21.8453 31.1047 18C31.1047 14.1547 34.2075 11.3547 37.7215 11.3547C39.2555 11.3547 40.5716 11.838 41.6505 12.6102C42.0878 12.9232 42.6967 12.9216 43.0786 12.543L46.8718 8.78216C47.2674 8.38991 47.2683 7.74705 46.8447 7.38512C44.3876 5.2854 41.2078 4 37.7215 4C29.9832 4 23.7402 10.272 23.7402 18Z" fill="white"/>
<path fill-rule="evenodd" clip-rule="evenodd" d="M10.3375 35.3469C9.46633 36.2179 8.05406 36.2177 7.18314 35.3465C2.58347 30.7454 -0.000472069 24.5059 -0.000472069 18C-0.000472069 11.4941 2.58347 5.25458 7.18314 0.653534C8.05406 -0.217655 9.46633 -0.217873 10.3375 0.653053C11.2087 1.52398 11.2089 2.93624 10.338 3.80743C6.57463 7.57193 4.46049 12.677 4.46049 18C4.46049 23.323 6.57463 28.4281 10.338 32.1926C11.2089 33.0638 11.2087 34.476 10.3375 35.3469ZM15.0917 29.0336C14.2211 29.9051 12.8089 29.9059 11.9373 29.0353C10.4857 27.5853 9.33404 25.8633 8.5483 23.9678C7.76257 22.0724 7.35815 20.0407 7.35815 17.9888C7.35815 15.937 7.76257 13.9053 8.5483 12.0099C9.33404 10.1144 10.4857 8.39244 11.9373 6.94238C12.8089 6.0718 14.2211 6.07259 15.0917 6.94413C15.9623 7.81567 15.9615 9.22794 15.09 10.0985C14.0531 11.1343 13.2305 12.3643 12.6692 13.7181C12.108 15.072 11.8191 16.5232 11.8191 17.9888C11.8191 19.4544 12.108 20.9057 12.6692 22.2596C13.2305 23.6134 14.0531 24.8434 15.09 25.8792C15.9615 26.7498 15.9623 28.162 15.0917 29.0336Z" fill="white"/>
<path fill-rule="evenodd" clip-rule="evenodd" d="M217.147 0.653055C218.018 -0.217871 219.43 -0.217658 220.301 0.653532C224.901 5.25458 227.485 11.4941 227.485 18C227.485 24.5059 224.901 30.7454 220.301 35.3465C219.43 36.2177 218.018 36.2179 217.147 35.3469C216.276 34.476 216.275 33.0638 217.146 32.1926C220.91 28.4281 223.024 23.323 223.024 18C223.024 12.677 220.91 7.57193 217.146 3.80744C216.275 2.93625 216.276 1.52398 217.147 0.653055ZM212.393 6.96644C213.263 6.0949 214.675 6.09411 215.547 6.96469C216.999 8.41475 218.15 10.1367 218.936 12.0322C219.722 13.9276 220.126 15.9593 220.126 18.0112C220.126 20.063 219.722 22.0947 218.936 23.9901C218.15 25.8856 216.999 27.6076 215.547 29.0576C214.675 29.9282 213.263 29.9274 212.393 29.0559C211.522 28.1843 211.523 26.7721 212.394 25.9015C213.431 24.8657 214.254 23.6357 214.815 22.2819C215.376 20.928 215.665 19.4768 215.665 18.0112C215.665 16.5456 215.376 15.0943 214.815 13.7404C214.254 12.3866 213.431 11.1566 212.394 10.1208C211.523 9.25025 211.522 7.83798 212.393 6.96644Z" fill="white"/>
</g>
<defs>
<clipPath id="clip0_56_974">
<rect width="228" height="36" fill="white"/>
</clipPath>
</defs>
</svg>
